<svg width="198" height="166" viewBox="0 0 198 166" fill="none" xmlns="http://www.w3.org/2000/svg">
<ellipse cx="99" cy="83" rx="99" ry="83" fill="black"/>
<ellipse cx="119.5" cy="82.5" rx="48.5" ry="46.5" fill="#EE8A8A"/>
<ellipse cx="96" cy="82.5" rx="49" ry="46.5" fill="#E2DF7A"/>
<ellipse cx="75.5" cy="80.5" rx="41.5" ry="39.5" fill="#1F6F28"/>
<path d="M60.0568 84V75.2727H61.1136V79.1591H65.767V75.2727H66.8239V84H65.767V80.0966H61.1136V84H60.0568ZM71.4624 84.1364C70.8714 84.1364 70.353 83.9957 69.907 83.7145C69.4638 83.4332 69.1172 83.0398 68.8672 82.5341C68.62 82.0284 68.4964 81.4375 68.4964 80.7614C68.4964 80.0795 68.62 79.4844 68.8672 78.9759C69.1172 78.4673 69.4638 78.0724 69.907 77.7912C70.353 77.5099 70.8714 77.3693 71.4624 77.3693C72.0533 77.3693 72.5703 77.5099 73.0135 77.7912C73.4595 78.0724 73.8061 78.4673 74.0533 78.9759C74.3033 79.4844 74.4283 80.0795 74.4283 80.7614C74.4283 81.4375 74.3033 82.0284 74.0533 82.5341C73.8061 83.0398 73.4595 83.4332 73.0135 83.7145C72.5703 83.9957 72.0533 84.1364 71.4624 84.1364ZM71.4624 83.233C71.9112 83.233 72.2805 83.1179 72.5703 82.8878C72.8601 82.6577 73.0746 82.3551 73.2138 81.9801C73.353 81.6051 73.4226 81.1989 73.4226 80.7614C73.4226 80.3239 73.353 79.9162 73.2138 79.5384C73.0746 79.1605 72.8601 78.8551 72.5703 78.6222C72.2805 78.3892 71.9112 78.2727 71.4624 78.2727C71.0135 78.2727 70.6442 78.3892 70.3544 78.6222C70.0646 78.8551 69.8501 79.1605 69.7109 79.5384C69.5717 79.9162 69.5021 80.3239 69.5021 80.7614C69.5021 81.1989 69.5717 81.6051 69.7109 81.9801C69.8501 82.3551 70.0646 82.6577 70.3544 82.8878C70.6442 83.1179 71.0135 83.233 71.4624 83.233ZM75.9634 84V77.4545H76.935V78.4773H77.0202C77.1566 78.1278 77.3768 77.8565 77.6808 77.6634C77.9847 77.4673 78.3498 77.3693 78.7759 77.3693C79.2077 77.3693 79.5671 77.4673 79.854 77.6634C80.1438 77.8565 80.3697 78.1278 80.5316 78.4773H80.5998C80.7674 78.1392 81.0188 77.8707 81.354 77.6719C81.6893 77.4702 82.0913 77.3693 82.56 77.3693C83.1452 77.3693 83.6239 77.5526 83.9961 77.919C84.3683 78.2827 84.5543 78.8494 84.5543 79.6193V84H83.5487V79.6193C83.5487 79.1364 83.4165 78.7912 83.1523 78.5838C82.8881 78.3764 82.5771 78.2727 82.2191 78.2727C81.7589 78.2727 81.4023 78.4119 81.1495 78.6903C80.8967 78.9659 80.7702 79.3153 80.7702 79.7386V84H79.7475V79.517C79.7475 79.1449 79.6268 78.8452 79.3853 78.6179C79.1438 78.3878 78.8327 78.2727 78.4521 78.2727C78.1907 78.2727 77.9464 78.3423 77.7191 78.4815C77.4947 78.6207 77.3129 78.8139 77.1737 79.0611C77.0373 79.3054 76.9691 79.5881 76.9691 79.9091V84H75.9634ZM89.1374 84.1364C88.5067 84.1364 87.9627 83.9972 87.5053 83.7188C87.0508 83.4375 86.6999 83.0455 86.4528 82.5426C86.2085 82.0369 86.0863 81.4489 86.0863 80.7784C86.0863 80.108 86.2085 79.517 86.4528 79.0057C86.6999 78.4915 87.0437 78.0909 87.484 77.804C87.9272 77.5142 88.4442 77.3693 89.0352 77.3693C89.3761 77.3693 89.7127 77.4261 90.0451 77.5398C90.3775 77.6534 90.68 77.8381 90.9528 78.0938C91.2255 78.3466 91.4428 78.6818 91.6048 79.0994C91.7667 79.517 91.8477 80.0312 91.8477 80.642V81.0682H86.8022V80.1989H90.8249C90.8249 79.8295 90.7511 79.5 90.6033 79.2102C90.4585 78.9205 90.2511 78.6918 89.9812 78.5241C89.7141 78.3565 89.3988 78.2727 89.0352 78.2727C88.6346 78.2727 88.288 78.3722 87.9954 78.571C87.7056 78.767 87.4826 79.0227 87.3263 79.3381C87.1701 79.6534 87.092 79.9915 87.092 80.3523V80.9318C87.092 81.4261 87.1772 81.8452 87.3477 82.1889C87.521 82.5298 87.761 82.7898 88.0678 82.9688C88.3746 83.1449 88.7312 83.233 89.1374 83.233C89.4016 83.233 89.6403 83.196 89.8533 83.1222C90.0692 83.0455 90.2553 82.9318 90.4116 82.7812C90.5678 82.6278 90.6886 82.4375 90.7738 82.2102L91.7454 82.483C91.6431 82.8125 91.4712 83.1023 91.2298 83.3523C90.9883 83.5994 90.69 83.7926 90.3349 83.9318C89.9798 84.0682 89.5806 84.1364 89.1374 84.1364Z" fill="white"/>
<path d="M69.5795 15.2102V14.2727L76.125 14.2727V15.2102L73.3807 15.2102V23H72.3239V15.2102H69.5795ZM78.6254 19.0625V23H77.6197V14.2727H78.6254V17.4773H78.7106C78.864 17.1392 79.0941 16.8707 79.4009 16.6719C79.7106 16.4702 80.1225 16.3693 80.6367 16.3693C81.0827 16.3693 81.4734 16.4588 81.8086 16.6378C82.1438 16.8139 82.4038 17.0852 82.5884 17.4517C82.7759 17.8153 82.8697 18.2784 82.8697 18.8409V23L81.864 23V18.9091C81.864 18.3892 81.729 17.9872 81.4592 17.7031C81.1921 17.4162 80.8214 17.2727 80.3469 17.2727C80.0174 17.2727 79.7219 17.3423 79.4606 17.4815C79.2021 17.6207 78.9975 17.8239 78.8469 18.0909C78.6992 18.358 78.6254 18.6818 78.6254 19.0625ZM87.4538 23.1364C86.8232 23.1364 86.2791 22.9972 85.8217 22.7187C85.3672 22.4375 85.0163 22.0455 84.7692 21.5426C84.5249 21.0369 84.4027 20.4489 84.4027 19.7784C84.4027 19.108 84.5249 18.517 84.7692 18.0057C85.0163 17.4915 85.3601 17.0909 85.8004 16.804C86.2436 16.5142 86.7607 16.3693 87.3516 16.3693C87.6925 16.3693 88.0291 16.4261 88.3615 16.5398C88.6939 16.6534 88.9964 16.8381 89.2692 17.0937C89.5419 17.3466 89.7592 17.6818 89.9212 18.0994C90.0831 18.517 90.1641 19.0312 90.1641 19.642V20.0682H85.1186V19.1989H89.1413C89.1413 18.8295 89.0675 18.5 88.9197 18.2102C88.7749 17.9205 88.5675 17.6918 88.2976 17.5241C88.0305 17.3565 87.7152 17.2727 87.3516 17.2727C86.951 17.2727 86.6044 17.3722 86.3118 17.571C86.022 17.767 85.799 18.0227 85.6428 18.3381C85.4865 18.6534 85.4084 18.9915 85.4084 19.3523V19.9318C85.4084 20.4261 85.4936 20.8452 85.6641 21.1889C85.8374 21.5298 86.0774 21.7898 86.3842 21.9687C86.6911 22.1449 87.0476 22.233 87.4538 22.233C87.718 22.233 87.9567 22.196 88.1697 22.1222C88.3857 22.0455 88.5717 21.9318 88.728 21.7812C88.8842 21.6278 89.005 21.4375 89.0902 21.2102L90.0618 21.483C89.9595 21.8125 89.7876 22.1023 89.5462 22.3523C89.3047 22.5994 89.0064 22.7926 88.6513 22.9318C88.2962 23.0682 87.897 23.1364 87.4538 23.1364ZM95.5632 23H94.4553L97.6598 14.2727H98.7507L101.955 23H100.847L98.2393 15.6534H98.1712L95.5632 23ZM95.9723 19.5909H100.438V20.5284H95.9723V19.5909ZM103.315 23V14.2727H104.32V17.4943H104.406C104.479 17.3807 104.582 17.2358 104.712 17.0597C104.846 16.8807 105.036 16.7216 105.283 16.5824C105.533 16.4403 105.871 16.3693 106.298 16.3693C106.849 16.3693 107.335 16.5071 107.755 16.7827C108.175 17.0582 108.504 17.4489 108.739 17.9545C108.975 18.4602 109.093 19.0568 109.093 19.7443C109.093 20.4375 108.975 21.0384 108.739 21.5469C108.504 22.0526 108.177 22.4446 107.759 22.723C107.342 22.9986 106.86 23.1364 106.315 23.1364C105.894 23.1364 105.558 23.0668 105.305 22.9276C105.052 22.7855 104.857 22.625 104.721 22.446C104.585 22.2642 104.479 22.1136 104.406 21.9943H104.286V23H103.315ZM104.303 19.7273C104.303 20.2216 104.376 20.6577 104.521 21.0355C104.665 21.4105 104.877 21.7045 105.156 21.9176C105.434 22.1278 105.775 22.233 106.178 22.233C106.599 22.233 106.95 22.1222 107.231 21.9006C107.515 21.6761 107.728 21.375 107.87 20.9972C108.015 20.6165 108.087 20.1932 108.087 19.7273C108.087 19.267 108.016 18.8523 107.874 18.483C107.735 18.1108 107.523 17.8168 107.239 17.6009C106.958 17.3821 106.604 17.2727 106.178 17.2727C105.769 17.2727 105.425 17.3764 105.147 17.5838C104.869 17.7884 104.658 18.0753 104.516 18.4446C104.374 18.8111 104.303 19.2386 104.303 19.7273ZM111.045 25.4545C110.874 25.4545 110.722 25.4403 110.589 25.4119C110.455 25.3864 110.363 25.3608 110.312 25.3352L110.567 24.4489C110.812 24.5114 111.028 24.5341 111.215 24.517C111.403 24.5 111.569 24.4162 111.714 24.2656C111.862 24.1179 111.996 23.8778 112.119 23.5455L112.306 23.0341L109.886 16.4545H110.977L112.783 21.6705H112.852L114.658 16.4545H115.749L112.971 23.9545C112.846 24.2926 112.691 24.5724 112.506 24.794C112.322 25.0185 112.107 25.1847 111.863 25.2926C111.621 25.4006 111.349 25.4545 111.045 25.4545ZM121.713 17.9205L120.81 18.1761C120.753 18.0256 120.669 17.8793 120.558 17.7372C120.45 17.5923 120.303 17.473 120.115 17.3793C119.928 17.2855 119.688 17.2386 119.395 17.2386C118.994 17.2386 118.661 17.331 118.393 17.5156C118.129 17.6974 117.997 17.929 117.997 18.2102C117.997 18.4602 118.088 18.6577 118.27 18.8026C118.452 18.9474 118.736 19.0682 119.122 19.1648L120.094 19.4034C120.679 19.5455 121.115 19.7628 121.402 20.0554C121.689 20.3452 121.832 20.7187 121.832 21.1761C121.832 21.5511 121.724 21.8864 121.509 22.1818C121.295 22.4773 120.997 22.7102 120.614 22.8807C120.23 23.0511 119.784 23.1364 119.276 23.1364C118.608 23.1364 118.055 22.9915 117.618 22.7017C117.18 22.4119 116.903 21.9886 116.787 21.4318L117.741 21.1932C117.832 21.5455 118.004 21.8097 118.257 21.9858C118.513 22.1619 118.847 22.25 119.259 22.25C119.727 22.25 120.099 22.1506 120.375 21.9517C120.653 21.75 120.793 21.5085 120.793 21.2273C120.793 21 120.713 20.8097 120.554 20.6562C120.395 20.5 120.151 20.3835 119.821 20.3068L118.73 20.0511C118.131 19.9091 117.69 19.6889 117.409 19.3906C117.131 19.0895 116.991 18.7131 116.991 18.2614C116.991 17.892 117.095 17.5653 117.303 17.2812C117.513 16.9972 117.798 16.7741 118.159 16.6122C118.523 16.4503 118.935 16.3693 119.395 16.3693C120.043 16.3693 120.551 16.5114 120.92 16.7955C121.293 17.0795 121.557 17.4545 121.713 17.9205ZM127.983 17.9205L127.079 18.1761C127.022 18.0256 126.939 17.8793 126.828 17.7372C126.72 17.5923 126.572 17.473 126.385 17.3793C126.197 17.2855 125.957 17.2386 125.664 17.2386C125.264 17.2386 124.93 17.331 124.663 17.5156C124.399 17.6974 124.267 17.929 124.267 18.2102C124.267 18.4602 124.358 18.6577 124.539 18.8026C124.721 18.9474 125.005 19.0682 125.392 19.1648L126.363 19.4034C126.949 19.5455 127.385 19.7628 127.672 20.0554C127.958 20.3452 128.102 20.7187 128.102 21.1761C128.102 21.5511 127.994 21.8864 127.778 22.1818C127.565 22.4773 127.267 22.7102 126.883 22.8807C126.5 23.0511 126.054 23.1364 125.545 23.1364C124.877 23.1364 124.325 22.9915 123.887 22.7017C123.45 22.4119 123.173 21.9886 123.056 21.4318L124.011 21.1932C124.102 21.5455 124.274 21.8097 124.527 21.9858C124.782 22.1619 125.116 22.25 125.528 22.25C125.997 22.25 126.369 22.1506 126.645 21.9517C126.923 21.75 127.062 21.5085 127.062 21.2273C127.062 21 126.983 20.8097 126.824 20.6562C126.664 20.5 126.42 20.3835 126.091 20.3068L125 20.0511C124.4 19.9091 123.96 19.6889 123.679 19.3906C123.4 19.0895 123.261 18.7131 123.261 18.2614C123.261 17.892 123.365 17.5653 123.572 17.2812C123.782 16.9972 124.068 16.7741 124.429 16.6122C124.792 16.4503 125.204 16.3693 125.664 16.3693C126.312 16.3693 126.821 16.5114 127.19 16.7955C127.562 17.0795 127.826 17.4545 127.983 17.9205Z" fill="white"/>
<path d="M134.545 64.8295C134.977 64.7784 135.312 64.571 135.551 64.2074C135.79 63.8438 135.909 63.3977 135.909 62.8693C135.909 62.483 135.847 62.1449 135.722 61.8551C135.597 61.5682 135.425 61.3438 135.206 61.1818C134.987 61.0227 134.739 60.9432 134.46 60.9432C134.227 60.9432 134.027 60.9986 133.859 61.1094C133.695 61.223 133.557 61.3679 133.446 61.544C133.338 61.7202 133.249 61.9048 133.178 62.098C133.109 62.2912 133.054 62.4688 133.011 62.6307L132.773 63.517C132.713 63.7443 132.631 63.9972 132.526 64.2756C132.42 64.5568 132.277 64.8253 132.095 65.081C131.916 65.3395 131.686 65.5526 131.405 65.7202C131.124 65.8878 130.778 65.9716 130.369 65.9716C129.898 65.9716 129.472 65.848 129.091 65.6009C128.71 65.3565 128.408 64.9986 128.183 64.527C127.959 64.0582 127.847 63.4886 127.847 62.8182C127.847 62.1932 127.947 61.652 128.149 61.1946C128.351 60.7401 128.632 60.3821 128.993 60.1207C129.354 59.8622 129.773 59.7159 130.25 59.6818V60.7727C129.92 60.8011 129.648 60.9119 129.432 61.1051C129.219 61.3011 129.06 61.5483 128.955 61.8466C128.852 62.1477 128.801 62.4716 128.801 62.8182C128.801 63.2216 128.866 63.5838 128.997 63.9048C129.131 64.2259 129.315 64.4801 129.551 64.6676C129.79 64.8551 130.068 64.9489 130.386 64.9489C130.676 64.9489 130.912 64.8679 131.094 64.706C131.276 64.544 131.423 64.331 131.537 64.0668C131.651 63.8026 131.75 63.517 131.835 63.2102L132.142 62.1364C132.338 61.4545 132.618 60.9148 132.982 60.517C133.345 60.1193 133.821 59.9205 134.409 59.9205C134.898 59.9205 135.324 60.0526 135.688 60.3168C136.054 60.5838 136.338 60.9418 136.54 61.3906C136.744 61.8423 136.847 62.3466 136.847 62.9034C136.847 63.4659 136.746 63.9659 136.544 64.4034C136.345 64.8409 136.072 65.1875 135.726 65.4432C135.379 65.7017 134.986 65.8381 134.545 65.8523V64.8295ZM134.545 70.4194H133.693V67.0273H134.545V70.4194ZM136.114 68.016V69.0217H129.875C129.591 69.0217 129.378 69.0629 129.236 69.1452C129.097 69.2305 129.003 69.3384 128.955 69.4691C128.909 69.6026 128.886 69.7433 128.886 69.891C128.886 70.0018 128.892 70.0927 128.903 70.1637C128.918 70.2347 128.929 70.2915 128.938 70.3342L128.034 70.5387C128.009 70.4705 127.983 70.3754 127.957 70.2532C127.929 70.131 127.915 69.9762 127.915 69.7887C127.915 69.5046 127.976 69.2262 128.098 68.9535C128.22 68.6836 128.406 68.4592 128.656 68.2802C128.906 68.104 129.222 68.016 129.602 68.016H136.114ZM128 71.9322H134.545V72.9038H133.557V72.9719C133.881 73.0913 134.143 73.3072 134.345 73.6197C134.547 73.9322 134.648 74.2844 134.648 74.6765C134.648 74.7504 134.646 74.8427 134.643 74.9535C134.641 75.0643 134.636 75.1481 134.631 75.2049H133.608C133.616 75.1708 133.629 75.0927 133.646 74.9705C133.666 74.8512 133.676 74.7248 133.676 74.5913C133.676 74.2731 133.609 73.989 133.476 73.739C133.345 73.4918 133.163 73.2958 132.93 73.1509C132.7 73.0089 132.438 72.9379 132.142 72.9379H128V71.9322ZM127.864 78.9421C127.864 78.3114 128.003 77.7674 128.281 77.31C128.562 76.8555 128.955 76.5046 129.457 76.2575C129.963 76.0131 130.551 75.891 131.222 75.891C131.892 75.891 132.483 76.0131 132.994 76.2575C133.509 76.5046 133.909 76.8484 134.196 77.2887C134.486 77.7319 134.631 78.2489 134.631 78.8398C134.631 79.1808 134.574 79.5174 134.46 79.8498C134.347 80.1822 134.162 80.4847 133.906 80.7575C133.653 81.0302 133.318 81.2475 132.901 81.4094C132.483 81.5714 131.969 81.6523 131.358 81.6523H130.932V76.6069H131.801V80.6296C132.17 80.6296 132.5 80.5558 132.79 80.408C133.08 80.2631 133.308 80.0558 133.476 79.7859C133.643 79.5188 133.727 79.2035 133.727 78.8398C133.727 78.4393 133.628 78.0927 133.429 77.8001C133.233 77.5103 132.977 77.2873 132.662 77.131C132.347 76.9748 132.009 76.8967 131.648 76.8967H131.068C130.574 76.8967 130.155 76.9819 129.811 77.1523C129.47 77.3256 129.21 77.5657 129.031 77.8725C128.855 78.1793 128.767 78.5359 128.767 78.9421C128.767 79.2063 128.804 79.445 128.878 79.658C128.955 79.8739 129.068 80.06 129.219 80.2163C129.372 80.3725 129.563 80.4933 129.79 80.5785L129.517 81.5501C129.188 81.4478 128.898 81.2759 128.648 81.0344C128.401 80.793 128.207 80.4947 128.068 80.1396C127.932 79.7844 127.864 79.3853 127.864 78.9421ZM134.545 86.0288H133.693V82.6367H134.545V86.0288ZM136.114 83.6254V84.631H129.875C129.591 84.631 129.378 84.6722 129.236 84.7546C129.097 84.8398 129.003 84.9478 128.955 85.0785C128.909 85.212 128.886 85.3526 128.886 85.5004C128.886 85.6112 128.892 85.7021 128.903 85.7731C128.918 85.8441 128.929 85.9009 128.938 85.9435L128.034 86.1481C128.009 86.0799 127.983 85.9847 127.957 85.8626C127.929 85.7404 127.915 85.5856 127.915 85.3981C127.915 85.114 127.976 84.8356 128.098 84.5629C128.22 84.293 128.406 84.0685 128.656 83.8896C128.906 83.7134 129.222 83.6254 129.602 83.6254H136.114ZM127.864 90.1303C127.864 89.5167 128.009 88.9883 128.298 88.5451C128.588 88.1019 128.987 87.761 129.496 87.5224C130.004 87.2837 130.585 87.1644 131.239 87.1644C131.903 87.1644 132.49 87.2866 132.999 87.5309C133.51 87.7781 133.909 88.1218 134.196 88.5621C134.486 89.0053 134.631 89.5224 134.631 90.1133C134.631 90.5735 134.545 90.9883 134.375 91.3576C134.205 91.7269 133.966 92.0295 133.659 92.2653C133.352 92.5011 132.994 92.6474 132.585 92.7042V91.6985C132.884 91.6218 133.148 91.4513 133.378 91.1871C133.611 90.9258 133.727 90.5735 133.727 90.1303C133.727 89.7383 133.625 89.3945 133.42 89.0991C133.219 88.8065 132.933 88.5778 132.564 88.413C132.197 88.2511 131.767 88.1701 131.273 88.1701C130.767 88.1701 130.327 88.2496 129.952 88.4087C129.577 88.5707 129.286 88.7979 129.078 89.0906C128.871 89.386 128.767 89.7326 128.767 90.1303C128.767 90.3917 128.812 90.6289 128.903 90.842C128.994 91.055 129.125 91.2354 129.295 91.3832C129.466 91.5309 129.67 91.636 129.909 91.6985V92.7042C129.523 92.6474 129.175 92.5067 128.865 92.2823C128.558 92.0607 128.314 91.7667 128.132 91.4002C127.953 91.0366 127.864 90.6133 127.864 90.1303ZM131.938 95.18H128V94.1744H136.727V95.18H133.523V95.2653C133.861 95.4187 134.129 95.6488 134.328 95.9556C134.53 96.2653 134.631 96.6772 134.631 97.1914C134.631 97.6374 134.541 98.0281 134.362 98.3633C134.186 98.6985 133.915 98.9585 133.548 99.1431C133.185 99.3306 132.722 99.4244 132.159 99.4244H128V98.4187H132.091C132.611 98.4187 133.013 98.2837 133.297 98.0138C133.584 97.7468 133.727 97.3761 133.727 96.9016C133.727 96.5721 133.658 96.2766 133.518 96.0153C133.379 95.7567 133.176 95.5522 132.909 95.4016C132.642 95.2539 132.318 95.18 131.938 95.18Z" fill="black"/>
<path d="M156.545 62.8295C156.977 62.7784 157.312 62.571 157.551 62.2074C157.79 61.8438 157.909 61.3977 157.909 60.8693C157.909 60.483 157.847 60.1449 157.722 59.8551C157.597 59.5682 157.425 59.3438 157.206 59.1818C156.987 59.0227 156.739 58.9432 156.46 58.9432C156.227 58.9432 156.027 58.9986 155.859 59.1094C155.695 59.223 155.557 59.3679 155.446 59.544C155.338 59.7202 155.249 59.9048 155.178 60.098C155.109 60.2912 155.054 60.4688 155.011 60.6307L154.773 61.517C154.713 61.7443 154.631 61.9972 154.526 62.2756C154.42 62.5568 154.277 62.8253 154.095 63.081C153.916 63.3395 153.686 63.5526 153.405 63.7202C153.124 63.8878 152.778 63.9716 152.369 63.9716C151.898 63.9716 151.472 63.848 151.091 63.6009C150.71 63.3565 150.408 62.9986 150.183 62.527C149.959 62.0582 149.847 61.4886 149.847 60.8182C149.847 60.1932 149.947 59.652 150.149 59.1946C150.351 58.7401 150.632 58.3821 150.993 58.1207C151.354 57.8622 151.773 57.7159 152.25 57.6818V58.7727C151.92 58.8011 151.648 58.9119 151.432 59.1051C151.219 59.3011 151.06 59.5483 150.955 59.8466C150.852 60.1477 150.801 60.4716 150.801 60.8182C150.801 61.2216 150.866 61.5838 150.997 61.9048C151.131 62.2259 151.315 62.4801 151.551 62.6676C151.79 62.8551 152.068 62.9489 152.386 62.9489C152.676 62.9489 152.912 62.8679 153.094 62.706C153.276 62.544 153.423 62.331 153.537 62.0668C153.651 61.8026 153.75 61.517 153.835 61.2102L154.142 60.1364C154.338 59.4545 154.618 58.9148 154.982 58.517C155.345 58.1193 155.821 57.9205 156.409 57.9205C156.898 57.9205 157.324 58.0526 157.688 58.3168C158.054 58.5838 158.338 58.9418 158.54 59.3906C158.744 59.8423 158.847 60.3466 158.847 60.9034C158.847 61.4659 158.746 61.9659 158.544 62.4034C158.345 62.8409 158.072 63.1875 157.726 63.4432C157.379 63.7017 156.986 63.8381 156.545 63.8523V62.8295ZM156.545 68.4194H155.693V65.0273H156.545V68.4194ZM158.114 66.016V67.0217H151.875C151.591 67.0217 151.378 67.0629 151.236 67.1452C151.097 67.2305 151.003 67.3384 150.955 67.4691C150.909 67.6026 150.886 67.7433 150.886 67.891C150.886 68.0018 150.892 68.0927 150.903 68.1637C150.918 68.2347 150.929 68.2915 150.938 68.3342L150.034 68.5387C150.009 68.4705 149.983 68.3754 149.957 68.2532C149.929 68.131 149.915 67.9762 149.915 67.7887C149.915 67.5046 149.976 67.2262 150.098 66.9535C150.22 66.6836 150.406 66.4592 150.656 66.2802C150.906 66.104 151.222 66.016 151.602 66.016H158.114ZM150 69.9322H156.545V70.9038H155.557V70.9719C155.881 71.0913 156.143 71.3072 156.345 71.6197C156.547 71.9322 156.648 72.2844 156.648 72.6765C156.648 72.7504 156.646 72.8427 156.643 72.9535C156.641 73.0643 156.636 73.1481 156.631 73.2049H155.608C155.616 73.1708 155.629 73.0927 155.646 72.9705C155.666 72.8512 155.676 72.7248 155.676 72.5913C155.676 72.2731 155.609 71.989 155.476 71.739C155.345 71.4918 155.163 71.2958 154.93 71.1509C154.7 71.0089 154.438 70.9379 154.142 70.9379H150V69.9322ZM152.676 78.522H156.545V79.5277H150V78.522H151.108V78.4538C150.776 78.3004 150.493 78.0618 150.26 77.7379C150.03 77.4141 149.915 77.005 149.915 76.5107C149.915 76.1016 150.004 75.7379 150.183 75.4197C150.365 75.1016 150.638 74.8516 151.001 74.6697C151.368 74.4879 151.83 74.397 152.386 74.397H156.545V75.4027H152.455C151.977 75.4027 151.597 75.5362 151.312 75.8033C151.028 76.0732 150.886 76.4169 150.886 76.8345C150.886 77.0845 150.95 77.3388 151.078 77.5973C151.206 77.8587 151.402 78.0774 151.666 78.2536C151.93 78.4325 152.267 78.522 152.676 78.522ZM147.409 84.0117C147.409 83.5259 147.472 83.1083 147.597 82.7589C147.719 82.4094 147.881 82.1183 148.082 81.8853C148.281 81.6552 148.494 81.4719 148.722 81.3356L149.284 82.1367C149.165 82.2276 149.028 82.3427 148.875 82.4819C148.719 82.6211 148.584 82.8114 148.47 83.0529C148.354 83.2972 148.295 83.6168 148.295 84.0117C148.295 84.5401 148.423 84.9762 148.679 85.32C148.935 85.6637 149.335 85.8356 149.881 85.8356H151.21V85.7504C151.091 85.6765 150.943 85.5714 150.767 85.435C150.594 85.3015 150.439 85.1083 150.303 84.8555C150.169 84.6055 150.102 84.2674 150.102 83.8413C150.102 83.3129 150.227 82.8384 150.477 82.418C150.727 82.0004 151.091 81.6694 151.568 81.4251C152.045 81.1836 152.625 81.0629 153.307 81.0629C153.977 81.0629 154.561 81.1808 155.058 81.4165C155.558 81.6523 155.945 81.9805 156.217 82.4009C156.493 82.8214 156.631 83.3072 156.631 83.8583C156.631 84.2844 156.56 84.6225 156.418 84.8725C156.278 85.1254 156.119 85.3185 155.94 85.4521C155.764 85.5884 155.619 85.6935 155.506 85.7674V85.8697H156.545V86.8413H149.812C149.25 86.8413 148.793 86.7134 148.44 86.4577C148.085 86.2049 147.825 85.864 147.661 85.435C147.493 85.0089 147.409 84.5344 147.409 84.0117ZM151.006 83.9776C151.006 84.381 151.098 84.7219 151.283 85.0004C151.467 85.2788 151.733 85.4904 152.08 85.6353C152.426 85.7802 152.841 85.8526 153.324 85.8526C153.795 85.8526 154.212 85.7816 154.572 85.6396C154.933 85.4975 155.216 85.2873 155.42 85.0089C155.625 84.7305 155.727 84.3867 155.727 83.9776C155.727 83.5515 155.619 83.1964 155.403 82.9123C155.188 82.631 154.898 82.4194 154.534 82.2773C154.17 82.1381 153.767 82.0685 153.324 82.0685C152.869 82.0685 152.467 82.1396 152.118 82.2816C151.771 82.4265 151.499 82.6396 151.3 82.9208C151.104 83.2049 151.006 83.5572 151.006 83.9776ZM147.409 91.3242C147.409 90.8384 147.472 90.4208 147.597 90.0714C147.719 89.7219 147.881 89.4308 148.082 89.1978C148.281 88.9677 148.494 88.7844 148.722 88.6481L149.284 89.4492C149.165 89.5401 149.028 89.6552 148.875 89.7944C148.719 89.9336 148.584 90.1239 148.47 90.3654C148.354 90.6097 148.295 90.9293 148.295 91.3242C148.295 91.8526 148.423 92.2887 148.679 92.6325C148.935 92.9762 149.335 93.1481 149.881 93.1481H151.21V93.0629C151.091 92.989 150.943 92.8839 150.767 92.7475C150.594 92.614 150.439 92.4208 150.303 92.168C150.169 91.918 150.102 91.5799 150.102 91.1538C150.102 90.6254 150.227 90.1509 150.477 89.7305C150.727 89.3129 151.091 88.9819 151.568 88.7376C152.045 88.4961 152.625 88.3754 153.307 88.3754C153.977 88.3754 154.561 88.4933 155.058 88.729C155.558 88.9648 155.945 89.293 156.217 89.7134C156.493 90.1339 156.631 90.6197 156.631 91.1708C156.631 91.5969 156.56 91.935 156.418 92.185C156.278 92.4379 156.119 92.631 155.94 92.7646C155.764 92.9009 155.619 93.006 155.506 93.0799V93.1822H156.545V94.1538H149.812C149.25 94.1538 148.793 94.0259 148.44 93.7702C148.085 93.5174 147.825 93.1765 147.661 92.7475C147.493 92.3214 147.409 91.8469 147.409 91.3242ZM151.006 91.2901C151.006 91.6935 151.098 92.0344 151.283 92.3129C151.467 92.5913 151.733 92.8029 152.08 92.9478C152.426 93.0927 152.841 93.1651 153.324 93.1651C153.795 93.1651 154.212 93.0941 154.572 92.9521C154.933 92.81 155.216 92.5998 155.42 92.3214C155.625 92.043 155.727 91.6992 155.727 91.2901C155.727 90.864 155.619 90.5089 155.403 90.2248C155.188 89.9435 154.898 89.7319 154.534 89.5898C154.17 89.4506 153.767 89.381 153.324 89.381C152.869 89.381 152.467 89.4521 152.118 89.5941C151.771 89.739 151.499 89.9521 151.3 90.2333C151.104 90.5174 151.006 90.8697 151.006 91.2901ZM158.727 97.0004H150V95.9947H158.727V97.0004ZM149.864 101.587C149.864 100.956 150.003 100.412 150.281 99.9545C150.562 99.5 150.955 99.1491 151.457 98.902C151.963 98.6577 152.551 98.5355 153.222 98.5355C153.892 98.5355 154.483 98.6577 154.994 98.902C155.509 99.1491 155.909 99.4929 156.196 99.9332C156.486 100.376 156.631 100.893 156.631 101.484C156.631 101.825 156.574 102.162 156.46 102.494C156.347 102.827 156.162 103.129 155.906 103.402C155.653 103.675 155.318 103.892 154.901 104.054C154.483 104.216 153.969 104.297 153.358 104.297H152.932V99.2514H153.801V103.274C154.17 103.274 154.5 103.2 154.79 103.053C155.08 102.908 155.308 102.7 155.476 102.43C155.643 102.163 155.727 101.848 155.727 101.484C155.727 101.084 155.628 100.737 155.429 100.445C155.233 100.155 154.977 99.9318 154.662 99.7756C154.347 99.6193 154.009 99.5412 153.648 99.5412H153.068C152.574 99.5412 152.155 99.6264 151.811 99.7969C151.47 99.9702 151.21 100.21 151.031 100.517C150.855 100.824 150.767 101.18 150.767 101.587C150.767 101.851 150.804 102.089 150.878 102.303C150.955 102.518 151.068 102.705 151.219 102.861C151.372 103.017 151.563 103.138 151.79 103.223L151.517 104.195C151.188 104.092 150.898 103.92 150.648 103.679C150.401 103.438 150.207 103.139 150.068 102.784C149.932 102.429 149.864 102.03 149.864 101.587Z" fill="black"/>
</svg>
