<svg xmlns="http://www.w3.org/2000/svg" width="125" height="72" viewBox="0 0 125 72">
  <g fill="none" fill-rule="evenodd">
    <path fill="#393965" d="M31.166786,32.2367673 C32.0621901,32.2367673 32.8615638,32.4659509 33.5649072,32.9235213 C34.2682505,33.3813573 34.8151488,34.0250895 35.2061296,34.8544525 C35.5968466,35.684081 35.792337,36.6427747 35.792337,37.7297368 C35.792337,38.8023583 35.6005401,39.7467114 35.2169462,40.5619994 C34.8330885,41.3772873 34.2896199,42.0069446 33.5860127,42.4501744 C32.8829332,42.8934043 32.0759087,43.115152 31.166786,43.115152 C30.3850882,43.115152 29.6962549,42.9470486 29.0994947,42.6111075 C28.5024707,42.2749008 28.0476456,41.7923672 27.7350192,41.1627099 L27.7350192,45.9474146 C27.7350192,46.2477698 27.6392526,46.4873105 27.4474557,46.6660365 C27.2556588,46.8447625 27.0031833,46.9345238 26.690557,46.9345238 C26.3636843,46.9345238 26.0972264,46.8413101 25.8914471,46.6556794 C25.68514,46.4695175 25.5825142,46.2190887 25.5825142,45.9046584 L25.5825142,33.3308997 C25.5825142,33.0164694 25.6817104,32.7625882 25.8808943,32.5695217 C26.0795505,32.3761895 26.3423149,32.279789 26.6694514,32.279789 C26.9818139,32.279789 27.237719,32.3761895 27.4366391,32.5695217 C27.6355592,32.7625882 27.7350192,33.0164694 27.7350192,33.3308997 L27.7350192,34.2107202 C28.0476456,33.5815941 28.5024707,33.095077 29.0994947,32.7519656 C29.6962549,32.408323 30.3850882,32.2367673 31.166786,32.2367673 Z M123.477171,32.237086 C123.746795,32.237086 123.98476,32.3300342 124.191067,32.5159304 C124.396846,32.7020923 124.5,32.9235744 124.5,33.1811735 C124.5,33.3243137 124.471507,33.460018 124.414786,33.5888175 L118.489396,46.247823 C118.404182,46.4480598 118.279395,46.6018226 118.116091,46.7091113 C117.952786,46.8164 117.778401,46.8700444 117.593991,46.8700444 C117.338086,46.8700444 117.107244,46.7842665 116.901201,46.6127108 C116.695158,46.4411551 116.592004,46.2265777 116.592004,45.9689785 C116.592004,45.854254 116.62762,45.711645 116.698851,45.5400893 L118.169646,42.3859606 L114.055641,33.5888175 C113.998656,33.4743585 113.970428,33.345559 113.970428,33.2026844 C113.970428,32.9310103 114.08387,32.7020923 114.311547,32.5159304 C114.538695,32.3300342 114.794337,32.237086 115.078734,32.237086 C115.505067,32.237086 115.810306,32.4373229 115.995244,32.8377966 L119.299322,40.2186755 L122.581767,32.8593074 C122.666981,32.64473 122.79124,32.4872493 122.954808,32.3871309 C123.117849,32.2870124 123.292233,32.237086 123.477171,32.237086 Z M15.8627101,27.6666667 C17.2978893,27.6666667 18.5412716,27.9779102 19.592857,28.599866 C20.6444424,29.2220874 21.4506754,30.1165141 22.0123476,31.2820837 C22.5734921,32.4479189 22.8541963,33.8174434 22.8541963,35.3909226 C22.8541963,36.9646674 22.5734921,38.3341918 22.0123476,39.4997615 C21.4506754,40.6655967 20.6444424,41.5634757 19.592857,42.1926019 C18.5412716,42.8222591 17.2978893,43.1366894 15.8627101,43.1366894 C14.4415133,43.1366894 13.2089476,42.8222591 12.1644854,42.1926019 C11.1200231,41.5634757 10.3135263,40.6690491 9.74525863,39.5106497 C9.17672715,38.3517192 8.89285714,36.9859127 8.89285714,35.4124335 C8.89285714,33.8246137 9.17303368,32.4479189 9.73470584,31.2820837 C10.2958504,30.1165141 11.1020834,29.2220874 12.1536688,28.599866 C13.2052541,27.9779102 14.4415133,27.6666667 15.8627101,27.6666667 Z M42.8013408,32.2366877 C44.1937812,32.2366877 45.2952285,32.6873534 46.105155,33.5884192 C46.9150815,34.4897506 47.3203086,35.7057778 47.3203086,37.2362353 C47.3203086,37.8085303 47.0641397,38.0942794 46.5528571,38.0942794 L39.9663342,38.0942794 C40.1082692,40.3117564 41.1669777,41.4199638 43.1424597,41.4199638 C43.6679885,41.4199638 44.1228137,41.3487921 44.5064076,41.205652 C44.8902653,41.0627774 45.2952285,40.8768811 45.7212973,40.6476976 C45.7640361,40.6190164 45.8814359,40.5584674 46.0732328,40.4652536 C46.2650298,40.3723055 46.4249045,40.3258314 46.5528571,40.3258314 C46.7517771,40.3258314 46.9150815,40.404439 47.0430341,40.5619197 C47.1709867,40.7194004 47.2350948,40.9196373 47.2350948,41.1626303 C47.2350948,41.5777101 46.9789259,41.9282574 46.4673795,42.2140065 C45.9700793,42.5002868 45.4263469,42.7217689 44.8369737,42.8792496 C44.2470728,43.0364647 43.6822348,43.1153379 43.1424597,43.1153379 C41.4938503,43.1153379 40.1934829,42.6325387 39.2418852,41.6669403 C38.2894961,40.7013419 37.8135653,39.3820095 37.8135653,37.7081463 C37.8135653,36.6355247 38.0230382,35.6842669 38.4422477,34.8543728 C38.8614572,34.0250099 39.4510943,33.3815432 40.2114227,32.9234416 C40.9714873,32.4658712 41.8347054,32.2366877 42.8013408,32.2366877 Z M55.2919905,32.2367142 C57.7784913,32.2367142 59.0221374,33.645808 59.0221374,36.46373 L59.0221374,42.0424773 C59.0221374,42.3715138 58.926107,42.625395 58.7343101,42.804121 C58.5425132,42.9828469 58.2760553,43.0723427 57.9349364,43.0723427 C57.6080638,43.0723427 57.348729,42.979129 57.1571959,42.7934983 C56.9651351,42.607602 56.8691048,42.3574388 56.8691048,42.0424773 L56.8691048,36.5710187 C56.8691048,35.6840279 56.6949838,35.0336565 56.3470056,34.6185767 C55.9987635,34.2037624 55.4550311,33.9960897 54.7163359,33.9960897 C53.8494243,33.9960897 53.1529403,34.268295 52.6274114,34.8116432 C52.1016188,35.3555226 51.8388543,36.0847672 51.8388543,37.0001736 L51.8388543,42.0424773 C51.8388543,42.3574388 51.742824,42.607602 51.5512908,42.7934983 C51.3592301,42.979129 51.0996315,43.0723427 50.7732865,43.0723427 C50.4458863,43.0723427 50.1831218,42.979129 49.9844656,42.7934983 C49.7852817,42.607602 49.6860855,42.3574388 49.6860855,42.0424773 L49.6860855,33.3098669 C49.6860855,33.0095116 49.7887114,32.7625351 49.9952822,32.5694686 C50.2007977,32.376402 50.4603963,32.2797359 50.7732865,32.2797359 C51.0856491,32.2797359 51.334431,32.3729496 51.5191048,32.5588459 C51.7037786,32.7450078 51.7961155,32.9877352 51.7961155,33.2880905 L51.7961155,34.167911 C52.1372344,33.5385193 52.6131652,33.059438 53.2241716,32.7304016 C53.8351781,32.4013652 54.524539,32.2367142 55.2919905,32.2367142 Z M84.3968976,32.1724472 C85.4197267,32.1724472 86.3185604,32.3944605 87.0931351,32.8376903 C87.8674459,33.2811857 88.4642061,33.9142954 88.8834156,34.7367536 C89.3026252,35.5594774 89.5123618,36.5213579 89.5123618,37.6226605 C89.5123618,38.7096226 89.3026252,39.6645984 88.8834156,40.4870566 C88.4642061,41.3095149 87.8674459,41.9426245 87.0931351,42.3858543 C86.3185604,42.8290842 85.4197267,43.0510974 84.3968976,43.0510974 C83.373541,43.0510974 82.4747072,42.8290842 81.7003964,42.3858543 C80.9258217,41.9426245 80.3287977,41.3095149 79.909852,40.4870566 C79.4906425,39.6645984 79.2809058,38.7096226 79.2809058,37.6226605 C79.2809058,36.5213579 79.4906425,35.5594774 79.909852,34.7367536 C80.3287977,33.9142954 80.9258217,33.2811857 81.7003964,32.8376903 C82.4747072,32.3944605 83.373541,32.1724472 84.3968976,32.1724472 Z M108.449578,32.1724207 C109.842019,32.1724207 110.943466,32.6230864 111.753392,33.5244177 C112.563319,34.4254836 112.968546,35.6415108 112.968546,37.1719683 C112.968546,37.7442633 112.712377,38.0300124 112.200831,38.0300124 L105.614572,38.0300124 C105.756507,40.2474894 106.815215,41.3556968 108.790697,41.3556968 C109.316226,41.3556968 109.771051,41.2845251 110.154645,41.141385 C110.538503,40.9985104 110.943466,40.8126141 111.369535,40.5834306 C111.412273,40.5547494 111.529673,40.4944659 111.72147,40.4009866 C111.913267,40.3080385 112.073142,40.2615644 112.200831,40.2615644 C112.399751,40.2615644 112.563319,40.340172 112.691271,40.4976527 C112.819224,40.6551334 112.883068,40.8553703 112.883068,41.0983633 C112.883068,41.5134431 112.627163,41.8639904 112.115617,42.1497395 C111.618053,42.4360198 111.074584,42.6575019 110.485211,42.8149826 C109.895046,42.9721977 109.330208,43.0510709 108.790697,43.0510709 C107.142088,43.0510709 105.84172,42.5682717 104.889859,41.6026733 C103.937733,40.6370749 103.461539,39.3177425 103.461539,37.6438793 C103.461539,36.5712577 103.671276,35.6199999 104.090485,34.7901058 C104.509695,33.9607429 105.099332,33.3172762 105.85966,32.8591746 C106.619725,32.4016042 107.482943,32.1724207 108.449578,32.1724207 Z M75.5513657,27.6666932 C75.8637282,27.6666932 76.1193695,27.7707951 76.3185534,27.9779367 C76.5174735,28.1853438 76.6169335,28.4535656 76.6169335,28.782602 L76.6169335,41.9568057 C76.6169335,42.2858421 76.5280263,42.5434413 76.3504756,42.7293375 C76.1726611,42.9149682 75.9275726,43.008182 75.6152101,43.008182 C75.31683,43.008182 75.0822942,42.9149682 74.9116029,42.7293375 C74.7411754,42.5434413 74.6559616,42.2858421 74.6559616,41.9568057 L74.6559616,31.9794869 L70.4781126,39.9825872 C70.2082251,40.4837105 69.8599831,40.7338738 69.4336504,40.7338738 C69.0073178,40.7338738 68.6590757,40.4837105 68.3891882,39.9825872 L64.1902337,32.0652647 L64.1902337,41.9568057 C64.1902337,42.2858421 64.1050199,42.5434413 63.9343285,42.7293375 C63.763901,42.9149682 63.5222421,43.008182 63.2098796,43.008182 C62.9114995,43.008182 62.6730065,42.9115159 62.4954558,42.7184493 C62.3179052,42.5253828 62.2292617,42.2715016 62.2292617,41.9568057 L62.2292617,28.782602 C62.2292617,28.4535656 62.328458,28.1853438 62.5276418,27.9779367 C62.7265619,27.7707951 62.9822032,27.6666932 63.2950934,27.6666932 C63.7351447,27.6666932 64.0907736,27.9240268 64.3606612,28.439225 L69.4550198,38.2447226 L74.5069035,28.439225 C74.7765272,27.9240268 75.1247692,27.6666932 75.5513657,27.6666932 Z M97.3872747,32.1724472 C99.8737755,32.1724472 101.117422,33.581541 101.117422,36.399463 L101.117422,41.9782103 C101.117422,42.3072468 101.021391,42.561128 100.829594,42.739854 C100.637797,42.9185799 100.371339,43.0080757 100.030484,43.0080757 C99.7033479,43.0080757 99.4440131,42.914862 99.25248,42.7292313 C99.0604193,42.543335 98.9643889,42.2931718 98.9643889,41.9782103 L98.9643889,36.5067517 C98.9643889,35.6197609 98.7902679,34.9693895 98.4422897,34.5543097 C98.0940477,34.1394954 97.5503153,33.9320883 96.8118839,33.9320883 C95.9447085,33.9320883 95.2482245,34.2037624 94.7226956,34.7471107 C94.1969029,35.2912556 93.9341385,36.0205002 93.9341385,36.9359066 L93.9341385,41.9782103 C93.9341385,42.2931718 93.8381081,42.543335 93.646575,42.7292313 C93.4545142,42.914862 93.1951795,43.0080757 92.8685707,43.0080757 C92.5411704,43.0080757 92.278406,42.914862 92.0797497,42.7292313 C91.8805659,42.543335 91.7813696,42.2931718 91.7813696,41.9782103 L91.7813696,33.2455999 C91.7813696,32.944979 91.8842593,32.6982681 92.0905663,32.5052016 C92.2960819,32.312135 92.5556805,32.2154689 92.8685707,32.2154689 C93.1809332,32.2154689 93.4297152,32.3086826 93.614389,32.4943133 C93.7990628,32.6804752 93.8913997,32.9234682 93.8913997,33.2238235 L93.8913997,34.103644 C94.2325186,33.4742523 94.7084493,32.9954366 95.3197196,32.6661346 C95.9304622,32.3370982 96.6198231,32.1724472 97.3872747,32.1724472 Z M30.6552396,33.9748975 C29.7173605,33.9748975 28.9960774,34.2964981 28.4919179,34.9402304 C27.9872308,35.5842282 27.7350192,36.4999001 27.7350192,37.6869807 C27.7350192,38.8740612 27.9872308,39.7894676 28.4919179,40.4331998 C28.9960774,41.0769321 29.7173605,41.3987982 30.6552396,41.3987982 C31.5931187,41.3987982 32.3180952,41.08065 32.8296416,40.444088 C33.3409242,39.8075261 33.5968294,38.9027423 33.5968294,37.7297368 C33.5968294,36.5426563 33.3372308,35.619814 32.818825,34.9617412 C32.2998917,34.3041995 31.5788724,33.9748975 30.6552396,33.9748975 Z M84.3968976,33.9105774 C83.4587547,33.9105774 82.734042,34.2289912 82.2224956,34.8655532 C81.7109492,35.5021151 81.455044,36.4209739 81.455044,37.6226605 C81.455044,38.8386878 81.7075195,39.7609989 82.2119428,40.3903906 C82.7163661,41.0200478 83.4445085,41.3344781 84.3968976,41.3344781 C85.3484953,41.3344781 86.0769016,41.0200478 86.5815887,40.3903906 C87.0857481,39.7609989 87.3382236,38.8386878 87.3382236,37.6226605 C87.3382236,36.4209739 87.0825823,35.5021151 86.5710359,34.8655532 C86.0592256,34.2289912 85.3345129,33.9105774 84.3968976,33.9105774 Z M15.8627101,29.4690639 C14.3705458,29.4690639 13.2089476,29.9805442 12.3776517,31.0032393 C11.5463558,32.0259344 11.1308398,33.4886725 11.1308398,35.3909226 C11.1308398,37.2937038 11.5463558,38.7596287 12.3776517,39.7894941 C13.2089476,40.8193595 14.3705458,41.3342922 15.8627101,41.3342922 C17.3688568,41.3342922 18.5412716,40.8193595 19.3796907,39.7894941 C20.2181097,38.7596287 20.6373192,37.2937038 20.6373192,35.3909226 C20.6373192,33.4886725 20.2218032,32.0259344 19.3905073,31.0032393 C18.5592114,29.9805442 17.3831031,29.4690639 15.8627101,29.4690639 Z M42.8440796,33.8245074 C42.019643,33.8245074 41.3587746,34.0895424 40.8614744,34.6185501 C40.3641743,35.148089 40.0657942,35.8916741 39.9663342,36.8498366 L45.465656,36.8498366 C45.4229173,35.8773335 45.1780926,35.130296 44.7303905,34.6076619 C44.2826885,34.0858245 43.6540061,33.8245074 42.8440796,33.8245074 Z M108.492317,33.760506 C107.66788,33.760506 107.007012,34.0252754 106.509712,34.5542831 C106.012148,35.083822 105.713768,35.8274071 105.614572,36.7855696 L111.113893,36.7855696 C111.071155,35.8133321 110.826066,35.066029 110.378628,34.5433949 C109.930662,34.0215575 109.302243,33.760506 108.492317,33.760506 Z"/>
    <path fill="#2BD7B6" d="M35.6335705,71.1428571 C35.5220154,71.1428571 35.4107247,71.1428571 35.2989052,71.1412733 C15.6572776,70.9628321 -0.177201854,54.8608861 0.00149778086,35.2476599 C0.0882041126,25.7464559 3.87473306,16.847887 10.6639974,10.1906562 C17.4532618,3.53342536 26.4337115,-0.0784259127 35.9470879,0.00129191851 C43.6232418,0.0709790293 50.9123893,2.53800834 57.0267718,7.13498195 C63.0190252,11.6403592 67.3702027,17.78048 69.6094995,24.891205 C69.7926931,25.4729868 69.4688661,26.0930437 68.8865061,26.2759723 C68.3038819,26.4583731 67.6829271,26.1355422 67.4997335,25.5537605 C65.3994841,18.8849151 61.3179422,13.1259617 55.6963054,8.89933289 C49.9625849,4.58823481 43.1265308,2.27509787 35.9269975,2.20989819 C35.8231085,2.20884232 35.7181621,2.20831439 35.6142731,2.20831439 C26.8059143,2.20831439 18.5072196,5.59526635 12.2136088,11.7665352 C5.84598037,18.0101307 2.2944573,26.3564821 2.21330229,35.2679853 C2.04544094,53.6632708 16.8968081,68.7655764 35.3189957,68.932931 C42.591225,69.00341 49.5361907,66.7655035 55.3843741,62.4747308 C61.0406405,58.3238603 65.3262596,52.3811864 67.4513577,45.7403215 C67.6374591,45.1595956 68.2602644,44.8391404 68.8415669,45.0247088 C69.4231337,45.2105411 69.7440529,45.8319178 69.5582159,46.4129077 C67.2919556,53.4938044 62.7234835,59.8300522 56.6939569,64.2541279 C50.5473239,68.7645205 43.2716582,71.1428571 35.6335705,71.1428571"/>
  </g>
</svg>
